<?xml version="1.0" encoding="UTF-8"?><svg id="Graphic_Elements" xmlns="http://www.w3.org/2000/svg" viewBox="0 0 200 200"><defs><style>.cls-1{fill:#447099;}</style></defs><path class="cls-1" d="M56.81,40.9c17.48,13.13,36.29,39.74,43.19,54.02,6.91-14.28,25.71-40.9,43.19-54.02,12.62-9.47,33.06-16.8,33.06,6.52,0,4.66-2.67,39.12-4.24,44.72-5.44,19.45-25.28,24.41-42.92,21.41,30.84,5.25,38.69,22.64,21.74,40.02-32.18,33.02-46.25-8.29-49.86-18.87-.66-1.94-.97-2.85-.97-2.08,0-.77-.31.14-.97,2.08-3.61,10.58-17.68,51.89-49.86,18.87-16.94-17.39-9.1-34.77,21.74-40.02-17.65,3-37.48-1.96-42.92-21.41-1.57-5.6-4.24-40.06-4.24-44.72,0-23.32,20.44-15.99,33.06-6.52Z"/></svg>