<?xml version="1.0" encoding="UTF-8"?>
<svg xmlns="http://www.w3.org/2000/svg" id="Layer_1" viewBox="0 0 16 16">
  <defs>
    <style>.cls-1{fill:#447099;stroke-width:0px;}</style>
  </defs>
  <path class="cls-1" d="M14.22,4.35c-.8,0-1.2.52-1.2,1.54v2.23h-1.66v-2.23c0-1.02-.4-1.54-1.2-1.54-.72,0-1.09.44-1.09,1.3v4.08h-1.67v-4.2c0-.86.22-1.54.66-2.05.45-.5,1.05-.76,1.78-.76.85,0,1.5.33,1.92.98l.41.7.41-.7c.43-.66,1.07-.98,1.92-.98.22,0,.42.03.61.07-.67-1.51-1.79-2.02-1.79-2.02C12.2.24,10.23.02,8.19,0h-.05c-2.05.02-4.01.24-5.16.76C2.98.76.7,1.78.7,5.25c0,.79-.02,1.75,0,2.75.08,3.39.62,6.74,3.76,7.57,1.45.38,2.69.46,3.69.41,1.81-.1,2.83-.65,2.83-.65l-.06-1.32s-1.3.41-2.75.36c-1.44-.05-2.97-.16-3.2-1.93-.02-.16-.03-.32-.03-.5,0,0,1.42.35,3.21.43,1.1.05,2.13-.06,3.17-.19,2-.24,3.75-1.47,3.97-2.6,0,0,0,0,0,0v-3.94c0-.86-.36-1.3-1.09-1.3ZM4.76,5.33c-.51,0-.91-.41-.91-.91s.41-.91.91-.91.91.41.91.91-.41.91-.91.91Z"></path>
</svg>
