<svg width="16" height="16" viewBox="0 0 16 16" fill="none" xmlns="http://www.w3.org/2000/svg">
<path d="M4.125 14.9688V5.625H1.21875V14.9688H4.125ZM2.65625 4.375C3.59375 4.375 4.34375 3.59375 4.34375 2.65625C4.34375 1.75 3.59375 1 2.65625 1C1.75 1 1 1.75 1 2.65625C1 3.59375 1.75 4.375 2.65625 4.375ZM14.9688 14.9688H15V9.84375C15 7.34375 14.4375 5.40625 11.5 5.40625C10.0938 5.40625 9.15625 6.1875 8.75 6.90625H8.71875V5.625H5.9375V14.9688H8.84375V10.3438C8.84375 9.125 9.0625 7.96875 10.5625 7.96875C12.0625 7.96875 12.0938 9.34375 12.0938 10.4375V14.9688H14.9688Z" fill="#447099"/>
</svg>
